<svg viewBox="0 0 800 576"><path d="M72,264h8v8h-8zM72,296h8v8h-8zM80,240h8v8h-8zM80,320h8v8h-8zM80,344h8v8h-8zM88,216h8v8h-8zM88,280h8v8h-8zM96,200h8v8h-8zM96,232h8v8h-8zM96,256h8v8h-8zM96,304h8v8h-8zM96,368h8v8h-8zM104,184h8v8h-8zM104,320h8v8h-8zM104,344h8v8h-8zM112,168h8v8h-8zM112,264h8v8h-8zM112,288h8v8h-8zM112,360h8v8h-8zM112,384h8v8h-8zM112,408h8v8h-8zM120,208h8v8h-8zM120,232h8v8h-8zM120,312h8v8h-8zM128,144h8v8h-8zM128,184h8v8h-8zM128,248h8v8h-8zM128,296h8v8h-8zM128,336h8v8h-8zM128,392h8v8h-8zM136,160h8v8h-8zM136,216h8v8h-8zM136,272h8v8h-8zM136,368h8v8h-8zM136,416h8v8h-8zM144,128h8v8h-8zM144,176h8v8h-8zM144,240h8v8h-8zM144,312h8v8h-8zM144,352h8v8h-8zM144,384h8v8h-8zM152,200h8v8h-8zM152,264h8v8h-8zM152,288h8v8h-8zM152,336h8v8h-8zM152,408h8v8h-8zM152,432h8v8h-8zM160,136h8v8h-8zM160,168h8v8h-8zM160,224h8v8h-8zM160,304h8v8h-8zM160,456h8v8h-8zM168,112h8v8h-8zM168,152h8v8h-8zM168,192h8v8h-8zM168,248h8v8h-8zM168,328h8v8h-8zM168,360h8v8h-8zM168,384h8v8h-8zM168,424h8v8h-8zM176,216h8v8h-8zM176,272h8v8h-8zM176,296h8v8h-8zM176,400h8v8h-8zM176,448h8v8h-8zM184,120h8v8h-8zM184,144h8v8h-8zM184,176h8v8h-8zM184,240h8v8h-8zM184,320h8v8h-8zM184,352h8v8h-8zM184,416h8v8h-8zM192,96h8v8h-8zM192,200h8v8h-8zM192,264h8v8h-8zM192,288h8v8h-8zM192,376h8v8h-8zM192,440h8v8h-8zM200,112h8v8h-8zM200,160h8v8h-8zM200,224h8v8h-8zM200,312h8v8h-8zM200,344h8v8h-8zM200,400h8v8h-8zM208,136h8v8h-8zM208,184h8v8h-8zM208,248h8v8h-8zM208,280h8v8h-8zM208,384h8v8h-8zM208,424h8v8h-8zM208,464h8v8h-8zM216,88h8v8h-8zM216,152h8v8h-8zM216,208h8v8h-8zM216,304h8v8h-8zM216,360h8v8h-8zM216,448h8v8h-8zM224,120h8v8h-8zM224,176h8v8h-8zM224,232h8v8h-8zM224,264h8v8h-8zM224,328h8v8h-8zM224,376h8v8h-8zM224,408h8v8h-8zM232,104h8v8h-8zM232,144h8v8h-8zM232,200h8v8h-8zM232,280h8v8h-8zM232,344h8v8h-8zM232,432h8v8h-8zM232,472h8v8h-8zM240,80h8v8h-8zM240,168h8v8h-8zM240,240h8v8h-8zM240,304h8v8h-8zM240,392h8v8h-8zM240,456h8v8h-8zM248,128h8v8h-8zM248,216h8v8h-8zM248,264h8v8h-8zM248,320h8v8h-8zM248,360h8v8h-8zM248,416h8v8h-8zM256,104h8v8h-8zM256,144h8v8h-8zM256,184h8v8h-8zM256,232h8v8h-8zM256,288h8v8h-8zM256,344h8v8h-8zM256,376h8v8h-8zM256,432h8v8h-8zM256,472h8v8h-8zM264,80h8v8h-8zM264,160h8v8h-8zM264,200h8v8h-8zM264,256h8v8h-8zM264,312h8v8h-8zM264,400h8v8h-8zM264,448h8v8h-8zM272,96h8v8h-8zM272,120h8v8h-8zM272,224h8v8h-8zM272,280h8v8h-8zM272,336h8v8h-8zM272,464h8v8h-8zM280,144h8v8h-8zM280,184h8v8h-8zM280,248h8v8h-8zM280,304h8v8h-8zM280,360h8v8h-8zM280,384h8v8h-8zM280,408h8v8h-8zM280,432h8v8h-8zM280,488h8v8h-8zM288,80h8v8h-8zM288,112h8v8h-8zM288,168h8v8h-8zM288,208h8v8h-8zM288,272h8v8h-8zM288,328h8v8h-8zM296,136h8v8h-8zM296,232h8v8h-8zM296,296h8v8h-8zM296,352h8v8h-8zM296,400h8v8h-8zM296,448h8v8h-8zM296,472h8v8h-8zM304,96h8v8h-8zM304,176h8v8h-8zM304,200h8v8h-8zM304,264h8v8h-8zM304,376h8v8h-8zM304,424h8v8h-8zM312,80h8v8h-8zM312,120h8v8h-8zM312,152h8v8h-8zM312,224h8v8h-8zM312,240h8v8h-8zM312,248h8v8h-8zM312,256h8v8h-8zM312,272h8v8h-8zM312,280h8v8h-8zM312,288h8v8h-8zM312,296h8v8h-8zM312,304h8v8h-8zM312,312h8v8h-8zM312,320h8v8h-8zM312,392h8v8h-8zM312,456h8v8h-8zM320,168h8v8h-8zM320,208h8v8h-8zM320,216h8v8h-8zM320,232h8v8h-8zM320,240h8v8h-8zM320,264h8v8h-8zM320,280h8v8h-8zM320,328h8v8h-8zM320,336h8v8h-8zM320,344h8v8h-8zM320,360h8v8h-8zM320,416h8v8h-8zM320,480h8v8h-8zM328,104h8v8h-8zM328,136h8v8h-8zM328,184h8v8h-8zM328,192h8v8h-8zM328,200h8v8h-8zM328,208h8v8h-8zM328,224h8v8h-8zM328,248h8v8h-8zM328,256h8v8h-8zM328,272h8v8h-8zM328,288h8v8h-8zM328,296h8v8h-8zM328,304h8v8h-8zM328,312h8v8h-8zM328,320h8v8h-8zM328,336h8v8h-8zM328,352h8v8h-8zM328,368h8v8h-8zM328,440h8v8h-8zM336,88h8v8h-8zM336,168h8v8h-8zM336,176h8v8h-8zM336,216h8v8h-8zM336,232h8v8h-8zM336,240h8v8h-8zM336,264h8v8h-8zM336,272h8v8h-8zM336,280h8v8h-8zM336,304h8v8h-8zM336,328h8v8h-8zM336,344h8v8h-8zM336,360h8v8h-8zM336,376h8v8h-8zM336,384h8v8h-8zM336,408h8v8h-8zM336,464h8v8h-8zM344,120h8v8h-8zM344,152h8v8h-8zM344,160h8v8h-8zM344,184h8v8h-8zM344,192h8v8h-8zM344,200h8v8h-8zM344,208h8v8h-8zM344,224h8v8h-8zM344,232h8v8h-8zM344,248h8v8h-8zM344,256h8v8h-8zM344,288h8v8h-8zM344,296h8v8h-8zM344,312h8v8h-8zM344,320h8v8h-8zM344,336h8v8h-8zM344,352h8v8h-8zM344,360h8v8h-8zM344,368h8v8h-8zM344,392h8v8h-8zM344,432h8v8h-8zM352,96h8v8h-8zM352,144h8v8h-8zM352,160h8v8h-8zM352,168h8v8h-8zM352,176h8v8h-8zM352,200h8v8h-8zM352,216h8v8h-8zM352,240h8v8h-8zM352,256h8v8h-8zM352,264h8v8h-8zM352,272h8v8h-8zM352,280h8v8h-8zM352,304h8v8h-8zM352,320h8v8h-8zM352,328h8v8h-8zM352,344h8v8h-8zM352,376h8v8h-8zM352,384h8v8h-8zM352,400h8v8h-8zM352,456h8v8h-8zM360,136h8v8h-8zM360,152h8v8h-8zM360,184h8v8h-8zM360,192h8v8h-8zM360,208h8v8h-8zM360,224h8v8h-8zM360,232h8v8h-8zM360,248h8v8h-8zM360,280h8v8h-8zM360,288h8v8h-8zM360,296h8v8h-8zM360,312h8v8h-8zM360,336h8v8h-8zM360,344h8v8h-8zM360,352h8v8h-8zM360,360h8v8h-8zM360,368h8v8h-8zM360,392h8v8h-8zM360,400h8v8h-8zM360,408h8v8h-8zM360,416h8v8h-8zM368,120h8v8h-8zM368,128h8v8h-8zM368,144h8v8h-8zM368,160h8v8h-8zM368,168h8v8h-8zM368,176h8v8h-8zM368,192h8v8h-8zM368,200h8v8h-8zM368,216h8v8h-8zM368,224h8v8h-8zM368,240h8v8h-8zM368,248h8v8h-8zM368,256h8v8h-8zM368,264h8v8h-8zM368,272h8v8h-8zM368,304h8v8h-8zM368,312h8v8h-8zM368,320h8v8h-8zM368,328h8v8h-8zM368,360h8v8h-8zM368,376h8v8h-8zM368,384h8v8h-8zM368,424h8v8h-8zM368,448h8v8h-8zM376,96h8v8h-8zM376,136h8v8h-8zM376,144h8v8h-8zM376,152h8v8h-8zM376,168h8v8h-8zM376,184h8v8h-8zM376,208h8v8h-8zM376,232h8v8h-8zM376,272h8v8h-8zM376,280h8v8h-8zM376,288h8v8h-8zM376,296h8v8h-8zM376,336h8v8h-8zM376,344h8v8h-8zM376,352h8v8h-8zM376,368h8v8h-8zM376,384h8v8h-8zM376,392h8v8h-8zM376,400h8v8h-8zM376,408h8v8h-8zM376,416h8v8h-8zM376,432h8v8h-8zM384,112h8v8h-8zM384,120h8v8h-8zM384,128h8v8h-8zM384,160h8v8h-8zM384,176h8v8h-8zM384,192h8v8h-8zM384,200h8v8h-8zM384,216h8v8h-8zM384,224h8v8h-8zM384,240h8v8h-8zM384,248h8v8h-8zM384,256h8v8h-8zM384,264h8v8h-8zM384,296h8v8h-8zM384,304h8v8h-8zM384,312h8v8h-8zM384,320h8v8h-8zM384,328h8v8h-8zM384,352h8v8h-8zM384,360h8v8h-8zM384,376h8v8h-8zM384,408h8v8h-8zM384,424h8v8h-8zM384,440h8v8h-8zM392,104h8v8h-8zM392,128h8v8h-8zM392,136h8v8h-8zM392,144h8v8h-8zM392,152h8v8h-8zM392,168h8v8h-8zM392,184h8v8h-8zM392,208h8v8h-8zM392,224h8v8h-8zM392,232h8v8h-8zM392,248h8v8h-8zM392,272h8v8h-8zM392,280h8v8h-8zM392,288h8v8h-8zM392,328h8v8h-8zM392,336h8v8h-8zM392,344h8v8h-8zM392,368h8v8h-8zM392,384h8v8h-8zM392,392h8v8h-8zM392,400h8v8h-8zM392,416h8v8h-8zM392,432h8v8h-8zM392,448h8v8h-8zM400,112h8v8h-8zM400,120h8v8h-8zM400,152h8v8h-8zM400,160h8v8h-8zM400,176h8v8h-8zM400,184h8v8h-8zM400,192h8v8h-8zM400,200h8v8h-8zM400,208h8v8h-8zM400,216h8v8h-8zM400,240h8v8h-8zM400,256h8v8h-8zM400,264h8v8h-8zM400,288h8v8h-8zM400,296h8v8h-8zM400,304h8v8h-8zM400,312h8v8h-8zM400,320h8v8h-8zM400,352h8v8h-8zM400,360h8v8h-8zM400,376h8v8h-8zM400,392h8v8h-8zM400,408h8v8h-8zM400,424h8v8h-8zM400,440h8v8h-8zM408,104h8v8h-8zM408,128h8v8h-8zM408,136h8v8h-8zM408,144h8v8h-8zM408,168h8v8h-8zM408,224h8v8h-8zM408,232h8v8h-8zM408,248h8v8h-8zM408,264h8v8h-8zM408,272h8v8h-8zM408,280h8v8h-8zM408,320h8v8h-8zM408,328h8v8h-8zM408,336h8v8h-8zM408,344h8v8h-8zM408,368h8v8h-8zM408,376h8v8h-8zM408,384h8v8h-8zM408,400h8v8h-8zM408,416h8v8h-8zM408,424h8v8h-8zM408,432h8v8h-8zM408,448h8v8h-8zM416,112h8v8h-8zM416,120h8v8h-8zM416,136h8v8h-8zM416,152h8v8h-8zM416,160h8v8h-8zM416,176h8v8h-8zM416,184h8v8h-8zM416,192h8v8h-8zM416,200h8v8h-8zM416,208h8v8h-8zM416,216h8v8h-8zM416,232h8v8h-8zM416,240h8v8h-8zM416,256h8v8h-8zM416,288h8v8h-8zM416,296h8v8h-8zM416,304h8v8h-8zM416,312h8v8h-8zM416,344h8v8h-8zM416,352h8v8h-8zM416,360h8v8h-8zM416,392h8v8h-8zM416,408h8v8h-8zM416,440h8v8h-8zM424,128h8v8h-8zM424,144h8v8h-8zM424,160h8v8h-8zM424,168h8v8h-8zM424,184h8v8h-8zM424,208h8v8h-8zM424,224h8v8h-8zM424,248h8v8h-8zM424,256h8v8h-8zM424,264h8v8h-8zM424,272h8v8h-8zM424,280h8v8h-8zM424,296h8v8h-8zM424,320h8v8h-8zM424,328h8v8h-8zM424,336h8v8h-8zM424,368h8v8h-8zM424,376h8v8h-8zM424,384h8v8h-8zM424,400h8v8h-8zM424,408h8v8h-8zM424,416h8v8h-8zM424,424h8v8h-8zM424,432h8v8h-8zM432,128h8v8h-8zM432,136h8v8h-8zM432,152h8v8h-8zM432,176h8v8h-8zM432,192h8v8h-8zM432,200h8v8h-8zM432,216h8v8h-8zM432,232h8v8h-8zM432,240h8v8h-8zM432,288h8v8h-8zM432,304h8v8h-8zM432,312h8v8h-8zM432,336h8v8h-8zM432,344h8v8h-8zM432,352h8v8h-8zM432,360h8v8h-8zM432,384h8v8h-8zM432,392h8v8h-8zM432,464h8v8h-8zM440,96h8v8h-8zM440,144h8v8h-8zM440,160h8v8h-8zM440,168h8v8h-8zM440,176h8v8h-8zM440,184h8v8h-8zM440,208h8v8h-8zM440,224h8v8h-8zM440,240h8v8h-8zM440,248h8v8h-8zM440,256h8v8h-8zM440,264h8v8h-8zM440,272h8v8h-8zM440,280h8v8h-8zM440,296h8v8h-8zM440,312h8v8h-8zM440,320h8v8h-8zM440,328h8v8h-8zM440,360h8v8h-8zM440,368h8v8h-8zM440,376h8v8h-8zM440,400h8v8h-8zM440,408h8v8h-8zM440,416h8v8h-8zM448,112h8v8h-8zM448,144h8v8h-8zM448,152h8v8h-8zM448,192h8v8h-8zM448,200h8v8h-8zM448,208h8v8h-8zM448,216h8v8h-8zM448,232h8v8h-8zM448,248h8v8h-8zM448,280h8v8h-8zM448,288h8v8h-8zM448,304h8v8h-8zM448,336h8v8h-8zM448,344h8v8h-8zM448,352h8v8h-8zM448,384h8v8h-8zM448,392h8v8h-8zM448,440h8v8h-8zM456,160h8v8h-8zM456,168h8v8h-8zM456,176h8v8h-8zM456,184h8v8h-8zM456,224h8v8h-8zM456,232h8v8h-8zM456,256h8v8h-8zM456,264h8v8h-8zM456,272h8v8h-8zM456,296h8v8h-8zM456,304h8v8h-8zM456,312h8v8h-8zM456,320h8v8h-8zM456,328h8v8h-8zM456,352h8v8h-8zM456,360h8v8h-8zM456,368h8v8h-8zM456,376h8v8h-8zM456,384h8v8h-8zM456,400h8v8h-8zM456,456h8v8h-8zM464,88h8v8h-8zM464,128h8v8h-8zM464,184h8v8h-8zM464,192h8v8h-8zM464,200h8v8h-8zM464,208h8v8h-8zM464,216h8v8h-8zM464,232h8v8h-8zM464,240h8v8h-8zM464,248h8v8h-8zM464,280h8v8h-8zM464,288h8v8h-8zM464,328h8v8h-8zM464,336h8v8h-8zM464,344h8v8h-8zM464,424h8v8h-8zM464,472h8v8h-8zM472,104h8v8h-8zM472,168h8v8h-8zM472,192h8v8h-8zM472,216h8v8h-8zM472,248h8v8h-8zM472,256h8v8h-8zM472,264h8v8h-8zM472,272h8v8h-8zM472,288h8v8h-8zM472,296h8v8h-8zM472,304h8v8h-8zM472,312h8v8h-8zM472,320h8v8h-8zM472,352h8v8h-8zM472,360h8v8h-8zM472,368h8v8h-8zM472,392h8v8h-8zM480,144h8v8h-8zM480,200h8v8h-8zM480,216h8v8h-8zM480,224h8v8h-8zM480,232h8v8h-8zM480,240h8v8h-8zM480,264h8v8h-8zM480,280h8v8h-8zM480,320h8v8h-8zM480,328h8v8h-8zM480,336h8v8h-8zM480,344h8v8h-8zM480,432h8v8h-8zM480,456h8v8h-8zM488,80h8v8h-8zM488,120h8v8h-8zM488,160h8v8h-8zM488,240h8v8h-8zM488,256h8v8h-8zM488,272h8v8h-8zM488,280h8v8h-8zM488,288h8v8h-8zM488,296h8v8h-8zM488,304h8v8h-8zM488,312h8v8h-8zM488,408h8v8h-8zM488,480h8v8h-8zM496,104h8v8h-8zM496,192h8v8h-8zM496,376h8v8h-8zM496,424h8v8h-8zM496,448h8v8h-8zM504,144h8v8h-8zM504,176h8v8h-8zM504,216h8v8h-8zM504,256h8v8h-8zM504,352h8v8h-8zM504,392h8v8h-8zM504,472h8v8h-8zM512,80h8v8h-8zM512,120h8v8h-8zM512,232h8v8h-8zM512,272h8v8h-8zM512,304h8v8h-8zM512,328h8v8h-8zM512,440h8v8h-8zM520,96h8v8h-8zM520,152h8v8h-8zM520,192h8v8h-8zM520,344h8v8h-8zM520,376h8v8h-8zM520,408h8v8h-8zM520,488h8v8h-8zM528,112h8v8h-8zM528,168h8v8h-8zM528,208h8v8h-8zM528,256h8v8h-8zM528,288h8v8h-8zM528,424h8v8h-8zM528,456h8v8h-8zM536,80h8v8h-8zM536,136h8v8h-8zM536,232h8v8h-8zM536,312h8v8h-8zM536,360h8v8h-8zM536,392h8v8h-8zM536,472h8v8h-8zM544,104h8v8h-8zM544,176h8v8h-8zM544,200h8v8h-8zM544,272h8v8h-8zM544,328h8v8h-8zM544,432h8v8h-8zM552,152h8v8h-8zM552,224h8v8h-8zM552,248h8v8h-8zM552,288h8v8h-8zM552,344h8v8h-8zM552,376h8v8h-8zM552,408h8v8h-8zM552,448h8v8h-8zM552,480h8v8h-8zM560,80h8v8h-8zM560,120h8v8h-8zM560,168h8v8h-8zM560,192h8v8h-8zM560,304h8v8h-8zM560,392h8v8h-8zM568,96h8v8h-8zM568,136h8v8h-8zM568,240h8v8h-8zM568,272h8v8h-8zM568,320h8v8h-8zM568,360h8v8h-8zM568,424h8v8h-8zM568,456h8v8h-8zM576,208h8v8h-8zM576,344h8v8h-8zM576,400h8v8h-8zM576,472h8v8h-8zM584,88h8v8h-8zM584,112h8v8h-8zM584,152h8v8h-8zM584,176h8v8h-8zM584,224h8v8h-8zM584,256h8v8h-8zM584,288h8v8h-8zM584,328h8v8h-8zM584,376h8v8h-8zM584,440h8v8h-8zM592,128h8v8h-8zM592,192h8v8h-8zM592,304h8v8h-8zM592,416h8v8h-8zM600,144h8v8h-8zM600,232h8v8h-8zM600,272h8v8h-8zM600,352h8v8h-8zM600,384h8v8h-8zM600,432h8v8h-8zM600,456h8v8h-8zM608,96h8v8h-8zM608,168h8v8h-8zM608,208h8v8h-8zM608,256h8v8h-8zM608,312h8v8h-8zM608,336h8v8h-8zM608,400h8v8h-8zM616,112h8v8h-8zM616,136h8v8h-8zM616,192h8v8h-8zM616,224h8v8h-8zM616,288h8v8h-8zM616,368h8v8h-8zM624,160h8v8h-8zM624,248h8v8h-8zM624,304h8v8h-8zM624,328h8v8h-8zM624,408h8v8h-8zM624,432h8v8h-8zM624,456h8v8h-8zM632,104h8v8h-8zM632,128h8v8h-8zM632,184h8v8h-8zM632,216h8v8h-8zM632,272h8v8h-8zM632,352h8v8h-8zM632,384h8v8h-8zM640,152h8v8h-8zM640,320h8v8h-8zM640,400h8v8h-8zM640,424h8v8h-8zM648,176h8v8h-8zM648,208h8v8h-8zM648,248h8v8h-8zM648,288h8v8h-8zM648,368h8v8h-8zM648,448h8v8h-8zM656,120h8v8h-8zM656,144h8v8h-8zM656,232h8v8h-8zM656,272h8v8h-8zM656,304h8v8h-8zM656,336h8v8h-8zM656,384h8v8h-8zM656,416h8v8h-8zM664,168h8v8h-8zM664,200h8v8h-8zM664,352h8v8h-8zM672,224h8v8h-8zM672,256h8v8h-8zM672,288h8v8h-8zM672,320h8v8h-8zM672,400h8v8h-8zM680,144h8v8h-8zM680,176h8v8h-8zM680,360h8v8h-8zM680,384h8v8h-8zM688,200h8v8h-8zM688,240h8v8h-8zM688,272h8v8h-8zM688,304h8v8h-8zM688,336h8v8h-8zM696,160h8v8h-8zM696,216h8v8h-8zM696,352h8v8h-8zM704,184h8v8h-8zM704,256h8v8h-8zM704,280h8v8h-8zM704,320h8v8h-8zM704,384h8v8h-8zM712,208h8v8h-8zM712,232h8v8h-8zM712,304h8v8h-8zM712,360h8v8h-8zM720,288h8v8h-8zM720,336h8v8h-8zM728,240h8v8h-8zM728,264h8v8h-8zM736,312h8v8h-8z" fill="#000"/></svg>