<svg viewBox="0 0 480 608"><path d="M0,232h8v8h-8zM0,248h8v8h-8zM16,216h8v8h-8zM16,264h8v8h-8zM32,208h8v8h-8zM32,280h8v8h-8zM32,536h8v8h-8zM32,552h8v8h-8zM40,520h8v8h-8zM40,528h8v8h-8zM40,560h8v8h-8zM48,296h8v8h-8zM48,504h8v8h-8zM48,512h8v8h-8zM48,568h8v8h-8zM56,200h8v8h-8zM56,496h8v8h-8zM56,568h8v8h-8zM64,312h8v8h-8zM64,488h8v8h-8zM64,576h8v8h-8zM72,480h8v8h-8zM72,576h8v8h-8zM72,600h8v8h-8zM80,200h8v8h-8zM80,320h8v8h-8zM80,472h8v8h-8zM80,576h8v8h-8zM80,600h8v8h-8zM88,464h8v8h-8zM88,568h8v8h-8zM88,600h8v8h-8zM96,456h8v8h-8zM96,576h8v8h-8zM96,600h8v8h-8zM104,208h8v8h-8zM104,328h8v8h-8zM104,336h8v8h-8zM104,448h8v8h-8zM104,568h8v8h-8zM104,600h8v8h-8zM112,440h8v8h-8zM112,568h8v8h-8zM112,600h8v8h-8zM120,208h8v8h-8zM120,344h8v8h-8zM120,432h8v8h-8zM120,568h8v8h-8zM120,600h8v8h-8zM128,424h8v8h-8zM128,568h8v8h-8zM128,600h8v8h-8zM136,424h8v8h-8zM136,560h8v8h-8zM136,600h8v8h-8zM144,208h8v8h-8zM144,352h8v8h-8zM144,416h8v8h-8zM144,560h8v8h-8zM144,600h8v8h-8zM152,408h8v8h-8zM152,560h8v8h-8zM152,600h8v8h-8zM160,360h8v8h-8zM160,408h8v8h-8zM160,560h8v8h-8zM160,600h8v8h-8zM168,56h8v8h-8zM168,216h8v8h-8zM168,400h8v8h-8zM168,552h8v8h-8zM168,600h8v8h-8zM176,96h8v8h-8zM176,392h8v8h-8zM176,552h8v8h-8zM176,600h8v8h-8zM184,136h8v8h-8zM184,368h8v8h-8zM184,392h8v8h-8zM184,552h8v8h-8zM184,600h8v8h-8zM192,216h8v8h-8zM192,384h8v8h-8zM192,544h8v8h-8zM192,600h8v8h-8zM200,184h8v8h-8zM200,376h8v8h-8zM200,544h8v8h-8zM200,600h8v8h-8zM208,224h8v8h-8zM208,376h8v8h-8zM208,536h8v8h-8zM208,600h8v8h-8zM216,224h8v8h-8zM216,368h8v8h-8zM216,536h8v8h-8zM216,600h8v8h-8zM224,24h8v8h-8zM224,240h8v8h-8zM224,368h8v8h-8zM224,384h8v8h-8zM224,536h8v8h-8zM224,600h8v8h-8zM232,232h8v8h-8zM232,360h8v8h-8zM232,384h8v8h-8zM232,528h8v8h-8zM232,600h8v8h-8zM240,232h8v8h-8zM240,256h8v8h-8zM240,360h8v8h-8zM240,528h8v8h-8zM240,600h8v8h-8zM248,280h8v8h-8zM248,352h8v8h-8zM248,392h8v8h-8zM248,520h8v8h-8zM248,600h8v8h-8zM256,48h8v8h-8zM256,240h8v8h-8zM256,264h8v8h-8zM256,352h8v8h-8zM256,376h8v8h-8zM256,392h8v8h-8zM256,520h8v8h-8zM256,600h8v8h-8zM264,288h8v8h-8zM264,304h8v8h-8zM264,344h8v8h-8zM264,512h8v8h-8zM272,240h8v8h-8zM272,248h8v8h-8zM272,320h8v8h-8zM272,344h8v8h-8zM272,368h8v8h-8zM272,392h8v8h-8zM272,512h8v8h-8zM280,272h8v8h-8zM280,312h8v8h-8zM280,336h8v8h-8zM280,504h8v8h-8zM288,80h8v8h-8zM288,288h8v8h-8zM288,336h8v8h-8zM288,392h8v8h-8zM288,496h8v8h-8zM296,248h8v8h-8zM296,256h8v8h-8zM296,304h8v8h-8zM296,328h8v8h-8zM296,352h8v8h-8zM296,368h8v8h-8zM296,400h8v8h-8zM296,496h8v8h-8zM304,96h8v8h-8zM304,328h8v8h-8zM304,336h8v8h-8zM304,352h8v8h-8zM304,384h8v8h-8zM304,488h8v8h-8zM312,264h8v8h-8zM312,288h8v8h-8zM312,320h8v8h-8zM312,360h8v8h-8zM312,408h8v8h-8zM312,488h8v8h-8zM320,264h8v8h-8zM320,320h8v8h-8zM320,328h8v8h-8zM320,344h8v8h-8zM320,368h8v8h-8zM320,376h8v8h-8zM320,400h8v8h-8zM320,480h8v8h-8zM328,136h8v8h-8zM328,296h8v8h-8zM328,320h8v8h-8zM328,360h8v8h-8zM328,384h8v8h-8zM328,472h8v8h-8zM336,272h8v8h-8zM336,312h8v8h-8zM336,320h8v8h-8zM336,344h8v8h-8zM336,392h8v8h-8zM336,408h8v8h-8zM336,472h8v8h-8zM344,152h8v8h-8zM344,280h8v8h-8zM344,320h8v8h-8zM344,336h8v8h-8zM344,352h8v8h-8zM344,368h8v8h-8zM344,384h8v8h-8zM344,400h8v8h-8zM344,464h8v8h-8zM352,296h8v8h-8zM352,312h8v8h-8zM352,360h8v8h-8zM352,408h8v8h-8zM352,456h8v8h-8zM360,280h8v8h-8zM360,312h8v8h-8zM360,328h8v8h-8zM360,344h8v8h-8zM360,376h8v8h-8zM360,392h8v8h-8zM360,408h8v8h-8zM360,416h8v8h-8zM360,456h8v8h-8zM368,192h8v8h-8zM368,312h8v8h-8zM368,360h8v8h-8zM368,384h8v8h-8zM368,448h8v8h-8zM376,288h8v8h-8zM376,296h8v8h-8zM376,312h8v8h-8zM376,328h8v8h-8zM376,344h8v8h-8zM376,368h8v8h-8zM376,400h8v8h-8zM376,416h8v8h-8zM376,440h8v8h-8zM384,232h8v8h-8zM384,304h8v8h-8zM384,320h8v8h-8zM384,336h8v8h-8zM384,352h8v8h-8zM384,376h8v8h-8zM384,392h8v8h-8zM384,408h8v8h-8zM384,432h8v8h-8zM392,304h8v8h-8zM392,360h8v8h-8zM392,424h8v8h-8zM392,432h8v8h-8zM400,248h8v8h-8zM400,304h8v8h-8zM400,320h8v8h-8zM400,344h8v8h-8zM400,376h8v8h-8zM400,400h8v8h-8zM400,408h8v8h-8zM400,416h8v8h-8zM408,304h8v8h-8zM408,328h8v8h-8zM408,352h8v8h-8zM408,368h8v8h-8zM408,384h8v8h-8zM408,408h8v8h-8zM408,416h8v8h-8zM416,288h8v8h-8zM416,304h8v8h-8zM416,320h8v8h-8zM416,344h8v8h-8zM416,400h8v8h-8zM424,304h8v8h-8zM424,312h8v8h-8zM424,328h8v8h-8zM424,352h8v8h-8zM424,368h8v8h-8zM424,384h8v8h-8zM424,392h8v8h-8zM424,400h8v8h-8zM424,408h8v8h-8zM424,440h8v8h-8zM432,336h8v8h-8zM432,360h8v8h-8zM432,384h8v8h-8zM440,304h8v8h-8zM440,344h8v8h-8zM440,368h8v8h-8zM440,376h8v8h-8zM440,392h8v8h-8zM440,424h8v8h-8zM448,312h8v8h-8zM448,352h8v8h-8zM448,368h8v8h-8zM448,400h8v8h-8zM456,312h8v8h-8zM456,320h8v8h-8zM456,344h8v8h-8zM456,352h8v8h-8zM456,360h8v8h-8zM456,384h8v8h-8zM464,328h8v8h-8zM464,336h8v8h-8zM472,312h8v8h-8zM472,320h8v8h-8zM472,328h8v8h-8zM472,336h8v8h-8zM472,352h8v8h-8zM472,360h8v8h-8zM472,464h8v8h-8zM472,472h8v8h-8z" fill="#000"/></svg>